<svg xmlns="http://www.w3.org/2000/svg" xmlns:xlink="http://www.w3.org/1999/xlink" width="500" zoomAndPan="magnify" viewBox="0 0 375 374.999991" height="500" preserveAspectRatio="xMidYMid meet" version="1.0"><defs><g/><clipPath id="ff000c6186"><path d="M 71.976562 71.976562 L 302.976562 71.976562 L 302.976562 302.976562 L 71.976562 302.976562 Z M 71.976562 71.976562 " clip-rule="nonzero"/></clipPath><clipPath id="037e78c958"><path d="M 269.210938 186.496094 L 287.210938 186.496094 L 287.210938 204.496094 L 269.210938 204.496094 Z M 269.210938 186.496094 " clip-rule="nonzero"/></clipPath><clipPath id="7e8474edda"><path d="M 88.347656 186.496094 L 106.347656 186.496094 L 106.347656 204.496094 L 88.347656 204.496094 Z M 88.347656 186.496094 " clip-rule="nonzero"/></clipPath><clipPath id="b0de94ad13"><path d="M 188 203 L 256 203 L 256 262.800781 L 188 262.800781 Z M 188 203 " clip-rule="nonzero"/></clipPath><clipPath id="fae9864162"><path d="M 119 203 L 185 203 L 185 262.800781 L 119 262.800781 Z M 119 203 " clip-rule="nonzero"/></clipPath><clipPath id="7ba7978e01"><path d="M 131 127.800781 L 244 127.800781 L 244 235 L 131 235 Z M 131 127.800781 " clip-rule="nonzero"/></clipPath></defs><g clip-path="url(#ff000c6186)"><path fill="#ffffff" d="M 296.792969 187.414062 L 298.082031 187.414062 C 298.097656 197.050781 296.640625 206.546875 293.933594 215.6875 L 292.714844 215.328125 C 295.390625 206.296875 296.824219 196.917969 296.792969 187.414062 Z M 300.347656 187.414062 L 302.894531 187.414062 C 302.867188 197.535156 301.324219 207.484375 298.496094 217.039062 L 296.082031 216.324219 C 298.847656 206.988281 300.34375 197.277344 300.347656 187.414062 Z M 292.714844 215.328125 L 293.933594 215.6875 C 291.226562 224.832031 287.269531 233.613281 282.28125 241.816406 L 281.1875 241.15625 C 286.125 233.042969 290.039062 224.359375 292.714844 215.328125 Z M 296.082031 216.324219 L 298.496094 217.039062 C 295.667969 226.59375 291.550781 235.757812 286.367188 244.300781 L 284.207031 242.984375 C 289.28125 234.621094 293.316406 225.660156 296.082031 216.324219 Z M 281.1875 241.15625 L 282.28125 241.816406 C 277.296875 250.019531 271.28125 257.644531 264.460938 264.460938 L 263.554688 263.554688 C 270.300781 256.808594 276.253906 249.265625 281.1875 241.15625 Z M 284.207031 242.984375 L 286.367188 244.300781 C 281.1875 252.84375 274.941406 260.769531 267.855469 267.855469 L 266.058594 266.058594 C 273.003906 259.117188 279.128906 251.351562 284.207031 242.984375 Z M 263.554688 263.554688 L 264.460938 264.460938 C 257.644531 271.28125 250.023438 277.292969 241.820312 282.28125 L 241.15625 281.1875 C 249.269531 276.253906 256.808594 270.300781 263.554688 263.554688 Z M 266.058594 266.058594 L 267.855469 267.855469 C 260.769531 274.941406 252.84375 281.1875 244.300781 286.367188 L 242.988281 284.203125 C 251.351562 279.125 259.117188 273.003906 266.058594 266.058594 Z M 241.15625 281.1875 L 241.820312 282.28125 C 233.617188 287.265625 224.832031 291.226562 215.691406 293.933594 L 215.328125 292.714844 C 224.359375 290.039062 233.042969 286.121094 241.15625 281.1875 Z M 242.988281 284.203125 L 244.300781 286.367188 C 235.757812 291.546875 226.597656 295.664062 217.039062 298.496094 L 216.324219 296.078125 C 225.660156 293.316406 234.625 289.28125 242.988281 284.203125 Z M 215.328125 292.714844 L 215.691406 293.933594 C 206.546875 296.640625 197.050781 298.097656 187.417969 298.082031 L 187.417969 296.792969 C 196.917969 296.824219 206.296875 295.390625 215.328125 292.714844 Z M 216.324219 296.078125 L 217.039062 298.496094 C 207.484375 301.324219 197.535156 302.863281 187.417969 302.894531 L 187.417969 300.347656 C 197.277344 300.339844 206.988281 298.84375 216.324219 296.078125 Z M 187.417969 296.792969 L 187.417969 298.082031 C 177.785156 298.097656 168.285156 296.640625 159.144531 293.933594 L 159.503906 292.714844 C 168.535156 295.390625 177.914062 296.824219 187.417969 296.792969 M 187.417969 300.347656 L 187.417969 302.894531 C 177.296875 302.863281 167.347656 301.324219 157.792969 298.496094 L 158.507812 296.078125 C 167.84375 298.84375 177.554688 300.339844 187.417969 300.347656 M 159.503906 292.714844 L 159.144531 293.933594 C 150.003906 291.226562 141.21875 287.265625 133.015625 282.28125 L 133.679688 281.1875 C 141.789062 286.121094 150.472656 290.039062 159.503906 292.714844 Z M 158.507812 296.078125 L 157.792969 298.496094 C 148.238281 295.664062 139.078125 291.546875 130.53125 286.367188 L 131.847656 284.203125 C 140.210938 289.28125 149.171875 293.316406 158.507812 296.078125 Z M 133.679688 281.1875 L 133.015625 282.28125 C 124.8125 277.292969 117.1875 271.28125 110.371094 264.460938 L 111.277344 263.554688 C 118.023438 270.300781 125.566406 276.253906 133.679688 281.1875 Z M 131.847656 284.203125 L 130.53125 286.367188 C 121.988281 281.1875 114.0625 274.941406 106.976562 267.855469 L 108.773438 266.058594 C 115.71875 273.003906 123.484375 279.125 131.847656 284.203125 Z M 111.277344 263.554688 L 110.371094 264.460938 C 103.554688 257.644531 97.539062 250.019531 92.550781 241.816406 L 93.644531 241.15625 C 98.578125 249.265625 104.53125 256.808594 111.277344 263.554688 Z M 108.773438 266.058594 L 106.976562 267.855469 C 99.890625 260.769531 93.644531 252.84375 88.464844 244.300781 L 90.628906 242.984375 C 95.707031 251.351562 101.828125 259.117188 108.773438 266.058594 Z M 93.644531 241.15625 L 92.550781 241.816406 C 87.566406 233.613281 83.605469 224.832031 80.898438 215.6875 L 82.117188 215.328125 C 84.792969 224.359375 88.710938 233.042969 93.644531 241.15625 Z M 90.628906 242.984375 L 88.464844 244.300781 C 83.285156 235.757812 79.167969 226.59375 76.339844 217.039062 L 78.753906 216.324219 C 81.519531 225.660156 85.550781 234.621094 90.628906 242.984375 Z M 82.117188 215.328125 L 80.898438 215.6875 C 78.191406 206.546875 76.734375 197.050781 76.753906 187.417969 L 78.039062 187.417969 C 78.007812 196.917969 79.441406 206.296875 82.117188 215.328125 Z M 78.753906 216.324219 L 76.339844 217.039062 C 73.507812 207.484375 71.96875 197.535156 71.9375 187.417969 L 74.488281 187.417969 C 74.492188 197.277344 75.988281 206.988281 78.753906 216.324219 Z M 78.039062 187.417969 L 76.753906 187.417969 C 76.734375 177.78125 78.191406 168.285156 80.898438 159.144531 L 82.117188 159.503906 C 79.441406 168.535156 78.007812 177.914062 78.039062 187.417969 M 74.488281 187.417969 L 71.9375 187.417969 C 71.96875 177.296875 73.507812 167.347656 76.339844 157.792969 L 78.753906 158.507812 C 75.988281 167.84375 74.492188 177.554688 74.488281 187.417969 M 82.117188 159.503906 L 80.898438 159.144531 C 83.605469 150 87.566406 141.21875 92.550781 133.015625 L 93.644531 133.675781 C 88.710938 141.789062 84.792969 150.472656 82.117188 159.503906 Z M 78.753906 158.507812 L 76.339844 157.792969 C 79.167969 148.238281 83.285156 139.074219 88.464844 130.53125 L 90.628906 131.847656 C 85.550781 140.210938 81.519531 149.171875 78.753906 158.507812 Z M 93.644531 133.675781 L 92.550781 133.015625 C 97.539062 124.8125 103.554688 117.1875 110.371094 110.371094 L 111.277344 111.277344 C 104.53125 118.023438 98.578125 125.566406 93.644531 133.675781 Z M 90.628906 131.847656 L 88.464844 130.53125 C 93.644531 121.988281 99.890625 114.0625 106.976562 106.976562 L 108.773438 108.773438 C 101.828125 115.714844 95.707031 123.480469 90.628906 131.847656 Z M 111.277344 111.277344 L 110.371094 110.371094 C 117.1875 103.550781 124.8125 97.539062 133.015625 92.550781 L 133.679688 93.644531 C 125.566406 98.578125 118.023438 104.53125 111.277344 111.277344 Z M 108.773438 108.773438 L 106.976562 106.976562 C 114.0625 99.890625 121.988281 93.644531 130.53125 88.464844 L 131.847656 90.628906 C 123.484375 95.707031 115.71875 101.828125 108.773438 108.773438 Z M 133.679688 93.644531 L 133.015625 92.550781 C 141.21875 87.566406 150.003906 83.605469 159.144531 80.898438 L 159.503906 82.117188 C 150.472656 84.792969 141.789062 88.710938 133.679688 93.644531 Z M 131.847656 90.628906 L 130.53125 88.464844 C 139.078125 83.285156 148.238281 79.167969 157.792969 76.335938 L 158.507812 78.753906 C 149.171875 81.515625 140.210938 85.550781 131.847656 90.628906 Z M 159.503906 82.117188 L 159.144531 80.898438 C 168.285156 78.191406 177.785156 76.734375 187.417969 76.75 L 187.417969 78.039062 C 177.914062 78.007812 168.535156 79.441406 159.503906 82.117188 Z M 158.507812 78.75 L 157.792969 76.335938 C 167.347656 73.507812 177.296875 71.96875 187.417969 71.9375 L 187.417969 74.484375 C 177.554688 74.492188 167.84375 75.988281 158.507812 78.75 Z M 187.417969 78.039062 L 187.417969 76.75 C 197.050781 76.734375 206.546875 78.191406 215.691406 80.898438 L 215.328125 82.117188 C 206.296875 79.441406 196.917969 78.007812 187.417969 78.039062 M 187.417969 74.484375 L 187.417969 71.9375 C 197.535156 71.96875 207.484375 73.507812 217.039062 76.335938 L 216.324219 78.753906 C 206.988281 75.988281 197.277344 74.492188 187.417969 74.484375 M 215.328125 82.117188 L 215.691406 80.898438 C 224.832031 83.605469 233.617188 87.566406 241.820312 92.550781 L 241.15625 93.644531 C 233.042969 88.710938 224.359375 84.792969 215.328125 82.117188 Z M 216.324219 78.753906 L 217.039062 76.335938 C 226.597656 79.167969 235.757812 83.285156 244.300781 88.464844 L 242.988281 90.628906 C 234.625 85.550781 225.660156 81.515625 216.324219 78.75 Z M 241.15625 93.644531 L 241.820312 92.550781 C 250.023438 97.539062 257.644531 103.550781 264.460938 110.371094 L 263.554688 111.277344 C 256.808594 104.53125 249.269531 98.578125 241.15625 93.644531 Z M 242.988281 90.628906 L 244.300781 88.464844 C 252.84375 93.644531 260.773438 99.890625 267.855469 106.976562 L 266.058594 108.773438 C 259.117188 101.828125 251.351562 95.707031 242.988281 90.628906 Z M 263.554688 111.277344 L 264.460938 110.371094 C 271.28125 117.1875 277.296875 124.8125 282.28125 133.015625 L 281.1875 133.675781 C 276.253906 125.566406 270.300781 118.023438 263.554688 111.277344 Z M 266.058594 108.773438 L 267.855469 106.976562 C 274.941406 114.0625 281.1875 121.988281 286.367188 130.53125 L 284.207031 131.847656 C 279.128906 123.480469 273.003906 115.714844 266.058594 108.773438 Z M 281.1875 133.675781 L 282.28125 133.015625 C 287.269531 141.21875 291.226562 150 293.933594 159.144531 L 292.714844 159.503906 C 290.039062 150.472656 286.125 141.789062 281.1875 133.675781 Z M 284.207031 131.847656 L 286.367188 130.53125 C 291.550781 139.074219 295.667969 148.238281 298.496094 157.792969 L 296.082031 158.507812 C 293.316406 149.171875 289.28125 140.210938 284.207031 131.847656 Z M 292.714844 159.503906 L 293.933594 159.144531 C 296.640625 168.285156 298.097656 177.78125 298.082031 187.414062 L 296.792969 187.414062 C 296.824219 177.914062 295.390625 168.535156 292.714844 159.503906 Z M 296.082031 158.507812 L 298.496094 157.792969 C 301.324219 167.347656 302.867188 177.296875 302.894531 187.414062 L 300.347656 187.414062 C 300.34375 177.554688 298.847656 167.84375 296.082031 158.507812 Z M 296.082031 158.507812 " fill-opacity="1" fill-rule="nonzero"/></g><g clip-path="url(#037e78c958)"><path fill="#ffffff" d="M 278.210938 186.496094 C 277.332031 193.910156 276.621094 194.621094 269.210938 195.496094 C 269.226562 195.5 269.242188 195.5 269.257812 195.503906 C 276.625 196.378906 277.335938 197.101562 278.210938 204.496094 C 279.085938 197.085938 279.796875 196.375 287.210938 195.496094 C 279.796875 194.621094 279.085938 193.910156 278.210938 186.496094 Z M 278.210938 186.496094 " fill-opacity="1" fill-rule="nonzero"/></g><g clip-path="url(#7e8474edda)"><path fill="#ffffff" d="M 97.347656 186.496094 C 96.472656 193.910156 95.761719 194.621094 88.347656 195.496094 C 88.363281 195.5 88.378906 195.5 88.394531 195.503906 C 95.761719 196.378906 96.472656 197.101562 97.347656 204.496094 C 98.226562 197.085938 98.9375 196.375 106.347656 195.496094 C 98.9375 194.621094 98.226562 193.910156 97.347656 186.496094 Z M 97.347656 186.496094 " fill-opacity="1" fill-rule="nonzero"/></g><g clip-path="url(#b0de94ad13)"><path fill="#ffffff" d="M 252.550781 208.160156 C 249.125 207.246094 242.6875 205.953125 236.167969 206.847656 C 236.144531 206.59375 236.097656 206.347656 236.019531 206.105469 C 235.941406 205.867188 235.835938 205.636719 235.703125 205.421875 C 235.570312 205.207031 235.414062 205.007812 235.238281 204.828125 C 235.058594 204.648438 234.863281 204.492188 234.648438 204.359375 C 234.433594 204.226562 234.207031 204.121094 233.964844 204.039062 C 233.726562 203.957031 233.480469 203.90625 233.230469 203.882812 C 232.976562 203.863281 232.726562 203.867188 232.476562 203.902344 C 232.226562 203.941406 231.980469 204.003906 231.746094 204.097656 C 229.382812 205.027344 227.140625 206.191406 225.023438 207.589844 C 224.859375 207.179688 224.621094 206.820312 224.308594 206.507812 C 224 206.195312 223.636719 205.953125 223.230469 205.789062 C 222.820312 205.625 222.394531 205.546875 221.953125 205.554688 C 221.511719 205.5625 221.089844 205.65625 220.6875 205.839844 C 219.292969 206.476562 217.082031 207.535156 214.457031 208.945312 C 212.769531 209.894531 214.121094 212.4375 215.855469 211.546875 C 218.414062 210.171875 220.5625 209.140625 221.917969 208.523438 C 221.996094 208.488281 222.074219 208.488281 222.152344 208.53125 C 222.230469 208.574219 222.277344 208.636719 222.289062 208.726562 L 222.589844 210.480469 C 222.636719 210.746094 222.75 210.980469 222.925781 211.183594 C 223.101562 211.386719 223.316406 211.53125 223.566406 211.617188 C 223.820312 211.703125 224.082031 211.722656 224.34375 211.667969 C 224.605469 211.617188 224.839844 211.5 225.039062 211.324219 C 227.199219 209.351562 230.480469 207.792969 232.855469 206.835938 C 232.945312 206.796875 233.03125 206.808594 233.113281 206.867188 C 233.191406 206.921875 233.226562 207 233.222656 207.097656 L 233.136719 208.523438 C 233.125 208.75 233.164062 208.96875 233.253906 209.179688 C 233.34375 209.390625 233.476562 209.570312 233.648438 209.71875 C 233.824219 209.871094 234.019531 209.972656 234.242188 210.03125 C 234.460938 210.089844 234.683594 210.097656 234.910156 210.054688 C 241.441406 208.71875 248.289062 210.082031 251.792969 211.011719 C 251.972656 211.058594 252.089844 211.167969 252.136719 211.351562 C 252.195312 211.542969 252.15625 211.714844 252.015625 211.859375 C 246.269531 218.207031 236.667969 222.402344 236.574219 222.441406 C 236.382812 222.523438 236.214844 222.640625 236.074219 222.796875 C 235.933594 222.949219 235.828125 223.125 235.761719 223.320312 C 235.695312 223.515625 235.667969 223.71875 235.6875 223.925781 C 235.707031 224.132812 235.765625 224.328125 235.867188 224.511719 L 236.785156 226.175781 C 236.835938 226.265625 236.835938 226.355469 236.78125 226.441406 C 236.730469 226.53125 236.652344 226.574219 236.550781 226.574219 C 227.65625 226.492188 217.914062 227.292969 217.816406 227.300781 C 217.582031 227.320312 217.363281 227.390625 217.164062 227.515625 C 216.960938 227.640625 216.800781 227.800781 216.679688 228.003906 C 216.554688 228.203125 216.484375 228.421875 216.464844 228.65625 C 216.449219 228.890625 216.484375 229.117188 216.574219 229.335938 L 217.464844 231.496094 C 217.511719 231.59375 217.496094 231.683594 217.425781 231.769531 C 217.367188 231.851562 217.285156 231.882812 217.183594 231.863281 C 212.222656 231.066406 207.230469 230.671875 202.207031 230.6875 C 201.988281 230.6875 201.777344 230.738281 201.578125 230.835938 C 201.378906 230.933594 201.210938 231.066406 201.074219 231.238281 C 200.933594 231.410156 200.839844 231.605469 200.789062 231.820312 C 200.738281 232.035156 200.734375 232.25 200.78125 232.46875 L 201.226562 234.59375 C 201.246094 234.675781 201.230469 234.75 201.175781 234.816406 C 201.101562 234.898438 201.011719 234.929688 200.90625 234.914062 C 197.199219 234.929688 193.542969 235.371094 189.9375 236.238281 C 189.75 236.285156 189.574219 236.363281 189.414062 236.480469 C 189.257812 236.59375 189.128906 236.738281 189.023438 236.902344 C 188.921875 237.070312 188.855469 237.25 188.824219 237.445312 C 188.796875 237.636719 188.804688 237.828125 188.847656 238.019531 C 189.28125 239.453125 190.515625 239.191406 191.683594 238.871094 C 190.59375 241.46875 190.058594 244.175781 190.078125 246.992188 L 190.078125 261.335938 C 190.078125 261.53125 190.117188 261.722656 190.191406 261.902344 C 190.265625 262.082031 190.375 262.242188 190.511719 262.382812 C 190.648438 262.519531 190.808594 262.625 190.992188 262.699219 C 191.171875 262.777344 191.359375 262.8125 191.554688 262.8125 C 191.75 262.8125 191.941406 262.777344 192.121094 262.699219 C 192.300781 262.625 192.460938 262.519531 192.601562 262.382812 C 192.738281 262.242188 192.84375 262.082031 192.921875 261.902344 C 192.996094 261.722656 193.03125 261.53125 193.03125 261.335938 L 193.03125 246.992188 C 192.984375 243.871094 193.742188 240.957031 195.296875 238.25 C 197.175781 238 199.0625 237.871094 200.960938 237.871094 C 201.214844 237.867188 201.464844 237.835938 201.710938 237.773438 C 201.953125 237.714844 202.191406 237.625 202.414062 237.507812 C 202.640625 237.394531 202.851562 237.253906 203.042969 237.089844 C 203.234375 236.925781 203.40625 236.738281 203.554688 236.535156 C 203.707031 236.332031 203.832031 236.113281 203.929688 235.878906 C 204.027344 235.644531 204.097656 235.40625 204.140625 235.15625 C 204.183594 234.90625 204.195312 234.652344 204.179688 234.402344 C 204.164062 234.148438 204.121094 233.898438 204.046875 233.65625 C 208.285156 233.726562 212.492188 234.097656 216.675781 234.773438 C 219.253906 235.269531 221.308594 232.394531 220.082031 230.09375 C 223.375 229.867188 230.167969 229.472656 236.519531 229.527344 C 239.082031 229.621094 240.671875 226.554688 239.214844 224.472656 C 242.269531 222.988281 249.363281 219.191406 254.207031 213.84375 C 255.957031 212.03125 255.011719 208.730469 252.550781 208.160156 Z M 252.550781 208.160156 " fill-opacity="1" fill-rule="nonzero"/></g><g clip-path="url(#fae9864162)"><path fill="#ffffff" d="M 174.101562 234.914062 C 173.875 234.929688 173.710938 234.839844 173.738281 234.59375 L 174.183594 232.46875 C 174.230469 232.25 174.226562 232.035156 174.171875 231.820312 C 174.121094 231.609375 174.027344 231.414062 173.886719 231.242188 C 173.75 231.070312 173.582031 230.9375 173.382812 230.839844 C 173.1875 230.742188 172.976562 230.691406 172.757812 230.6875 C 167.734375 230.675781 162.742188 231.066406 157.78125 231.863281 C 157.679688 231.882812 157.597656 231.851562 157.539062 231.769531 C 157.46875 231.6875 157.453125 231.59375 157.5 231.496094 L 158.390625 229.335938 C 158.476562 229.117188 158.511719 228.890625 158.492188 228.65625 C 158.472656 228.425781 158.402344 228.207031 158.28125 228.007812 C 158.15625 227.804688 157.996094 227.644531 157.796875 227.519531 C 157.597656 227.394531 157.382812 227.320312 157.148438 227.300781 C 157.050781 227.292969 147.3125 226.5 138.414062 226.574219 C 138.308594 226.585938 138.230469 226.542969 138.183594 226.441406 C 138.128906 226.355469 138.128906 226.265625 138.179688 226.175781 L 139.101562 224.511719 C 139.199219 224.328125 139.257812 224.132812 139.273438 223.925781 C 139.292969 223.71875 139.265625 223.519531 139.199219 223.320312 C 139.132812 223.125 139.027344 222.949219 138.886719 222.796875 C 138.746094 222.644531 138.582031 222.527344 138.390625 222.441406 C 138.296875 222.402344 128.703125 218.222656 122.945312 211.859375 C 122.808594 211.714844 122.765625 211.542969 122.828125 211.351562 C 122.875 211.171875 122.992188 211.058594 123.171875 211.015625 C 126.671875 210.082031 133.519531 208.71875 140.054688 210.054688 C 140.28125 210.097656 140.503906 210.09375 140.722656 210.03125 C 140.945312 209.972656 141.140625 209.871094 141.3125 209.71875 C 141.488281 209.570312 141.617188 209.390625 141.707031 209.179688 C 141.796875 208.972656 141.835938 208.75 141.824219 208.523438 L 141.742188 207.101562 C 141.738281 207.003906 141.773438 206.925781 141.855469 206.867188 C 141.933594 206.808594 142.019531 206.800781 142.109375 206.835938 C 144.484375 207.796875 147.765625 209.355469 149.925781 211.324219 C 150.125 211.503906 150.359375 211.617188 150.621094 211.671875 C 150.882812 211.722656 151.144531 211.707031 151.398438 211.621094 C 151.652344 211.53125 151.867188 211.386719 152.039062 211.183594 C 152.214844 210.980469 152.328125 210.746094 152.375 210.484375 L 152.675781 208.726562 C 152.691406 208.636719 152.734375 208.574219 152.8125 208.53125 C 152.890625 208.488281 152.96875 208.488281 153.050781 208.527344 C 154.34375 209.117188 156.402344 210.101562 158.871094 211.417969 C 159.042969 211.511719 159.226562 211.566406 159.421875 211.585938 C 159.617188 211.605469 159.808594 211.585938 159.996094 211.53125 C 160.183594 211.472656 160.351562 211.382812 160.503906 211.257812 C 160.652344 211.136719 160.777344 210.988281 160.867188 210.8125 C 160.960938 210.640625 161.015625 210.457031 161.035156 210.261719 C 161.054688 210.066406 161.035156 209.875 160.980469 209.6875 C 160.921875 209.5 160.832031 209.332031 160.707031 209.179688 C 160.582031 209.03125 160.433594 208.90625 160.261719 208.816406 C 157.730469 207.460938 155.609375 206.453125 154.277344 205.84375 C 153.875 205.660156 153.453125 205.566406 153.011719 205.554688 C 152.570312 205.546875 152.144531 205.625 151.738281 205.792969 C 151.328125 205.957031 150.964844 206.195312 150.65625 206.507812 C 150.34375 206.820312 150.105469 207.183594 149.941406 207.59375 C 147.824219 206.191406 145.582031 205.027344 143.21875 204.097656 C 142.984375 204.007812 142.742188 203.941406 142.488281 203.90625 C 142.238281 203.871094 141.988281 203.863281 141.738281 203.886719 C 141.484375 203.910156 141.238281 203.960938 141 204.042969 C 140.757812 204.121094 140.53125 204.226562 140.316406 204.363281 C 140.101562 204.496094 139.90625 204.652344 139.726562 204.832031 C 139.550781 205.011719 139.394531 205.207031 139.261719 205.425781 C 139.128906 205.640625 139.027344 205.867188 138.945312 206.109375 C 138.867188 206.347656 138.820312 206.59375 138.796875 206.847656 C 132.277344 205.949219 125.839844 207.25 122.410156 208.164062 C 119.953125 208.734375 119.007812 212.035156 120.757812 213.839844 C 125.597656 219.191406 132.695312 222.988281 135.75 224.46875 C 135.417969 224.96875 135.238281 225.515625 135.207031 226.113281 C 135.179688 226.710938 135.304688 227.273438 135.585938 227.800781 C 135.867188 228.332031 136.265625 228.75 136.777344 229.058594 C 137.289062 229.367188 137.84375 229.523438 138.441406 229.523438 C 144.789062 229.46875 151.585938 229.867188 154.882812 230.09375 C 153.660156 232.390625 155.710938 235.265625 158.289062 234.769531 C 162.472656 234.097656 166.679688 233.726562 170.917969 233.65625 C 170.84375 233.902344 170.796875 234.152344 170.78125 234.410156 C 170.765625 234.664062 170.78125 234.921875 170.828125 235.175781 C 170.871094 235.425781 170.945312 235.671875 171.050781 235.90625 C 171.152344 236.144531 171.28125 236.363281 171.4375 236.570312 C 171.589844 236.773438 171.765625 236.957031 171.964844 237.121094 C 172.164062 237.285156 172.378906 237.425781 172.609375 237.535156 C 172.839844 237.648438 173.082031 237.734375 173.332031 237.789062 C 173.585938 237.84375 173.839844 237.871094 174.097656 237.867188 C 174.566406 237.871094 175.03125 237.914062 175.496094 238 C 175.957031 238.085938 176.410156 238.214844 176.847656 238.382812 C 177.289062 238.550781 177.707031 238.757812 178.109375 239.003906 C 178.511719 239.246094 178.890625 239.527344 179.242188 239.839844 C 179.59375 240.152344 179.914062 240.492188 180.203125 240.863281 C 180.492188 241.234375 180.746094 241.628906 180.964844 242.046875 C 181.183594 242.460938 181.363281 242.894531 181.5 243.34375 C 181.640625 243.792969 181.738281 244.25 181.796875 244.71875 C 182.054688 245.878906 181.886719 259.800781 181.929688 261.335938 C 181.929688 261.53125 181.96875 261.71875 182.042969 261.898438 C 182.117188 262.082031 182.226562 262.242188 182.363281 262.378906 C 182.503906 262.515625 182.664062 262.625 182.84375 262.699219 C 183.023438 262.773438 183.210938 262.8125 183.40625 262.8125 C 183.605469 262.8125 183.792969 262.773438 183.972656 262.699219 C 184.152344 262.625 184.3125 262.515625 184.453125 262.378906 C 184.589844 262.242188 184.699219 262.082031 184.773438 261.898438 C 184.847656 261.71875 184.886719 261.53125 184.886719 261.335938 C 184.835938 259.386719 185.027344 245.96875 184.730469 244.367188 C 184.652344 243.722656 184.515625 243.089844 184.320312 242.46875 C 184.128906 241.851562 183.882812 241.253906 183.582031 240.679688 C 183.277344 240.101562 182.929688 239.558594 182.527344 239.046875 C 182.128906 238.535156 181.6875 238.066406 181.203125 237.632812 C 180.714844 237.203125 180.195312 236.816406 179.640625 236.480469 C 179.085938 236.144531 178.507812 235.859375 177.898438 235.625 C 177.292969 235.394531 176.671875 235.21875 176.035156 235.097656 C 175.394531 234.980469 174.75 234.917969 174.101562 234.914062 Z M 174.101562 234.914062 " fill-opacity="1" fill-rule="nonzero"/></g><g clip-path="url(#7ba7978e01)"><path fill="#ffffff" d="M 134.972656 148.445312 C 135.269531 148.199219 135.601562 148.152344 135.957031 148.300781 C 139.460938 149.761719 144.363281 152.425781 147.816406 156.835938 C 148.105469 157.207031 148.484375 157.394531 148.953125 157.402344 C 149.878906 157.503906 150.582031 156.25 151.117188 155.683594 C 151.183594 155.605469 151.265625 155.546875 151.355469 155.507812 C 151.449219 155.46875 151.546875 155.453125 151.648438 155.460938 C 151.75 155.46875 151.84375 155.5 151.933594 155.550781 C 152.019531 155.605469 152.089844 155.675781 152.140625 155.761719 C 153.671875 158.25 156.316406 163.03125 156.796875 167.0625 C 156.832031 167.328125 156.925781 167.570312 157.089844 167.78125 C 157.253906 167.996094 157.457031 168.152344 157.707031 168.253906 C 158.730469 168.734375 159.625 167.640625 160.355469 167.105469 C 160.429688 167.046875 160.515625 167.003906 160.613281 166.984375 C 160.707031 166.960938 160.804688 166.960938 160.898438 166.984375 C 160.992188 167.007812 161.078125 167.050781 161.152344 167.113281 C 161.230469 167.175781 161.285156 167.25 161.328125 167.339844 C 162.4375 169.804688 164.316406 174.570312 164.398438 178.78125 C 164.40625 179.097656 164.507812 179.386719 164.703125 179.640625 C 164.898438 179.894531 165.152344 180.066406 165.457031 180.15625 C 165.765625 180.246094 166.070312 180.238281 166.371094 180.132812 C 166.671875 180.027344 166.914062 179.84375 167.097656 179.582031 L 168 178.253906 C 168.125 178.054688 168.308594 177.964844 168.542969 177.972656 C 168.773438 177.976562 168.949219 178.078125 169.066406 178.28125 C 169.164062 178.449219 169.292969 178.589844 169.449219 178.707031 C 169.605469 178.824219 169.78125 178.90625 169.96875 178.957031 C 170.160156 179.003906 170.351562 179.015625 170.546875 178.984375 C 170.738281 178.957031 170.921875 178.894531 171.089844 178.792969 C 171.257812 178.695312 171.398438 178.566406 171.515625 178.410156 C 171.632812 178.25 171.714844 178.078125 171.765625 177.886719 C 171.8125 177.699219 171.824219 177.507812 171.796875 177.3125 C 171.765625 177.121094 171.703125 176.9375 171.601562 176.769531 C 171.375 176.390625 171.085938 176.0625 170.734375 175.789062 C 170.386719 175.515625 170 175.3125 169.578125 175.183594 C 169.152344 175.054688 168.71875 175.003906 168.277344 175.03125 C 167.832031 175.058594 167.410156 175.167969 167.007812 175.351562 C 166.386719 172.15625 165.390625 169.082031 164.019531 166.128906 C 163.824219 165.695312 163.550781 165.316406 163.203125 164.992188 C 162.855469 164.667969 162.460938 164.421875 162.015625 164.253906 C 161.570312 164.085938 161.109375 164.007812 160.636719 164.023438 C 160.160156 164.035156 159.707031 164.140625 159.273438 164.335938 C 158.320312 160.664062 156.320312 156.917969 154.660156 154.214844 C 154.511719 153.984375 154.34375 153.769531 154.148438 153.574219 C 153.953125 153.378906 153.738281 153.210938 153.503906 153.066406 C 153.269531 152.921875 153.023438 152.804688 152.761719 152.714844 C 152.503906 152.625 152.234375 152.566406 151.960938 152.539062 C 151.6875 152.511719 151.414062 152.515625 151.140625 152.550781 C 150.867188 152.585938 150.601562 152.652344 150.34375 152.746094 C 150.085938 152.84375 149.84375 152.96875 149.613281 153.117188 C 149.382812 153.269531 149.171875 153.445312 148.984375 153.644531 C 145.269531 149.550781 140.550781 147.019531 137.09375 145.578125 C 136.433594 145.300781 135.746094 145.214844 135.035156 145.316406 C 134.320312 145.417969 133.6875 145.691406 133.125 146.140625 C 132.5625 146.582031 132.15625 147.136719 131.902344 147.808594 C 131.648438 148.476562 131.585938 149.160156 131.714844 149.863281 C 132.628906 155.011719 134.628906 159.691406 137.726562 163.90625 C 137.542969 164.058594 137.382812 164.226562 137.238281 164.414062 C 137.09375 164.601562 136.96875 164.800781 136.867188 165.011719 C 136.765625 165.226562 136.6875 165.445312 136.632812 165.675781 C 136.574219 165.90625 136.546875 166.136719 136.539062 166.375 C 136.535156 166.609375 136.554688 166.84375 136.597656 167.074219 C 136.644531 167.304688 136.710938 167.53125 136.804688 167.746094 C 136.894531 167.964844 137.011719 168.167969 137.144531 168.363281 C 137.28125 168.554688 137.4375 168.730469 137.609375 168.890625 C 139.671875 170.785156 141.539062 172.851562 143.210938 175.097656 C 141.296875 176.238281 140.929688 179.050781 142.679688 180.511719 C 145.472656 183.015625 148.003906 185.765625 150.265625 188.761719 C 148.4375 190.109375 148.660156 193.164062 150.671875 194.226562 C 154.003906 196.175781 157.015625 198.53125 159.710938 201.292969 C 159.519531 201.460938 159.347656 201.652344 159.203125 201.859375 C 159.054688 202.066406 158.933594 202.289062 158.835938 202.527344 C 158.738281 202.761719 158.671875 203.007812 158.632812 203.257812 C 158.589844 203.511719 158.582031 203.765625 158.597656 204.019531 C 158.617188 204.273438 158.664062 204.523438 158.742188 204.765625 C 158.816406 205.011719 158.917969 205.242188 159.046875 205.460938 C 159.175781 205.683594 159.328125 205.886719 159.503906 206.070312 C 159.679688 206.253906 159.875 206.417969 160.089844 206.558594 C 164.0625 209.121094 167.128906 212.621094 168.554688 214.414062 C 168.375 214.570312 168.21875 214.746094 168.078125 214.941406 C 167.9375 215.132812 167.820312 215.339844 167.726562 215.558594 C 167.628906 215.773438 167.558594 216 167.511719 216.234375 C 167.464844 216.46875 167.445312 216.703125 167.449219 216.941406 C 167.453125 217.179688 167.480469 217.414062 167.535156 217.648438 C 167.589844 217.878906 167.667969 218.101562 167.773438 218.316406 C 167.875 218.53125 168 218.734375 168.144531 218.921875 C 168.292969 219.109375 168.457031 219.28125 168.636719 219.433594 C 169.757812 220.347656 170.917969 221.363281 172.105469 222.445312 C 157.148438 216.601562 138.363281 214.070312 137.425781 213.949219 C 137.234375 213.925781 137.046875 213.941406 136.859375 213.992188 C 136.671875 214.046875 136.5 214.132812 136.347656 214.25 C 136.195312 214.371094 136.070312 214.511719 135.976562 214.679688 C 135.878906 214.847656 135.816406 215.03125 135.792969 215.222656 C 135.765625 215.414062 135.777344 215.605469 135.828125 215.792969 C 135.878906 215.980469 135.960938 216.148438 136.078125 216.304688 C 136.195312 216.460938 136.335938 216.585938 136.503906 216.683594 C 136.667969 216.785156 136.847656 216.847656 137.039062 216.875 C 137.304688 216.910156 163.617188 220.457031 178.308594 228.550781 C 178.953125 229.222656 179.589844 229.917969 180.242188 230.609375 C 180.644531 231.578125 181.039062 232.484375 181.414062 233.304688 C 181.496094 233.480469 181.609375 233.636719 181.753906 233.769531 C 181.898438 233.902344 182.058594 234.003906 182.246094 234.074219 C 182.429688 234.140625 182.617188 234.171875 182.8125 234.164062 C 183.011719 234.15625 183.195312 234.113281 183.375 234.03125 C 183.554688 233.949219 183.707031 233.835938 183.84375 233.691406 C 183.976562 233.546875 184.074219 233.382812 184.144531 233.199219 C 184.210938 233.015625 184.242188 232.824219 184.234375 232.628906 C 184.226562 232.433594 184.179688 232.246094 184.097656 232.070312 C 180.734375 224.726562 178.585938 217.042969 177.648438 209.023438 C 177.617188 208.769531 177.691406 208.550781 177.878906 208.375 C 178.054688 208.199219 178.269531 208.128906 178.515625 208.164062 L 180.742188 208.464844 C 181.015625 208.5 181.277344 208.460938 181.53125 208.347656 C 181.78125 208.234375 181.988281 208.0625 182.144531 207.835938 C 182.300781 207.609375 182.390625 207.359375 182.40625 207.082031 C 182.421875 206.804688 182.367188 206.546875 182.238281 206.300781 C 179.6875 201.316406 177.765625 196.097656 176.46875 190.648438 C 176.433594 190.523438 176.433594 190.402344 176.464844 190.277344 C 176.496094 190.152344 176.558594 190.042969 176.644531 189.949219 C 176.730469 189.851562 176.835938 189.785156 176.957031 189.742188 C 177.078125 189.699219 177.203125 189.691406 177.328125 189.710938 L 178.734375 189.917969 C 179 189.953125 179.257812 189.921875 179.503906 189.820312 C 179.75 189.714844 179.953125 189.558594 180.117188 189.347656 C 180.277344 189.132812 180.375 188.894531 180.410156 188.632812 C 180.441406 188.367188 180.40625 188.109375 180.304688 187.863281 C 178.347656 182.941406 177.203125 177.835938 176.867188 172.550781 C 176.851562 172.273438 176.953125 172.054688 177.175781 171.886719 C 177.394531 171.71875 177.632812 171.683594 177.890625 171.777344 L 179.066406 172.1875 C 179.335938 172.285156 179.609375 172.300781 179.886719 172.234375 C 180.164062 172.171875 180.402344 172.039062 180.601562 171.835938 C 180.804688 171.636719 180.9375 171.394531 180.996094 171.117188 C 181.058594 170.839844 181.042969 170.566406 180.945312 170.296875 C 178.984375 164.132812 178.105469 157.816406 178.308594 151.351562 C 178.316406 151.078125 178.433594 150.867188 178.660156 150.71875 C 178.875 150.574219 179.105469 150.546875 179.347656 150.640625 L 180.417969 151.046875 C 180.539062 151.089844 180.660156 151.117188 180.785156 151.128906 C 180.910156 151.140625 181.035156 151.136719 181.160156 151.117188 C 181.285156 151.097656 181.40625 151.0625 181.523438 151.011719 C 181.640625 150.960938 181.746094 150.894531 181.847656 150.816406 C 181.945312 150.738281 182.035156 150.648438 182.109375 150.550781 C 182.1875 150.449219 182.25 150.339844 182.296875 150.222656 C 182.347656 150.105469 182.382812 149.984375 182.398438 149.859375 C 182.417969 149.734375 182.417969 149.609375 182.40625 149.484375 C 182.1875 146.257812 182.460938 143.074219 183.226562 139.933594 C 183.988281 136.792969 185.210938 133.84375 186.890625 131.078125 C 186.953125 130.976562 187.039062 130.894531 187.144531 130.835938 C 187.25 130.777344 187.363281 130.746094 187.480469 130.746094 C 187.601562 130.746094 187.714844 130.777344 187.820312 130.835938 C 187.925781 130.894531 188.011719 130.976562 188.074219 131.078125 C 189.75 133.839844 190.972656 136.792969 191.738281 139.933594 C 192.503906 143.074219 192.777344 146.253906 192.558594 149.480469 C 192.542969 149.605469 192.546875 149.730469 192.5625 149.855469 C 192.582031 149.980469 192.613281 150.101562 192.664062 150.21875 C 192.710938 150.335938 192.773438 150.445312 192.851562 150.546875 C 192.925781 150.648438 193.015625 150.738281 193.117188 150.816406 C 193.214844 150.894531 193.324219 150.957031 193.4375 151.007812 C 193.554688 151.058594 193.675781 151.09375 193.800781 151.113281 C 193.925781 151.136719 194.050781 151.140625 194.175781 151.125 C 194.304688 151.113281 194.425781 151.085938 194.542969 151.042969 L 195.613281 150.640625 C 195.730469 150.59375 195.851562 150.578125 195.976562 150.589844 C 196.101562 150.605469 196.21875 150.648438 196.320312 150.71875 C 196.425781 150.789062 196.507812 150.882812 196.566406 150.992188 C 196.625 151.105469 196.65625 151.222656 196.65625 151.347656 C 196.859375 157.816406 195.980469 164.128906 194.019531 170.296875 C 193.925781 170.5625 193.910156 170.835938 193.972656 171.109375 C 194.039062 171.386719 194.167969 171.625 194.367188 171.828125 C 194.566406 172.027344 194.804688 172.160156 195.082031 172.226562 C 195.359375 172.289062 195.628906 172.277344 195.898438 172.1875 L 197.070312 171.773438 C 197.191406 171.730469 197.320312 171.714844 197.449219 171.734375 C 197.578125 171.753906 197.691406 171.800781 197.796875 171.878906 C 197.902344 171.957031 197.980469 172.058594 198.03125 172.175781 C 198.085938 172.296875 198.105469 172.417969 198.09375 172.550781 C 197.761719 177.835938 196.617188 182.941406 194.660156 187.863281 C 194.554688 188.109375 194.515625 188.367188 194.546875 188.632812 C 194.578125 188.898438 194.675781 189.140625 194.839844 189.351562 C 195.472656 190.269531 196.746094 189.8125 197.636719 189.710938 C 197.761719 189.691406 197.886719 189.699219 198.007812 189.742188 C 198.128906 189.785156 198.234375 189.851562 198.320312 189.945312 C 198.40625 190.042969 198.46875 190.152344 198.5 190.277344 C 198.53125 190.402344 198.527344 190.523438 198.496094 190.648438 C 197.199219 196.097656 195.273438 201.316406 192.722656 206.300781 C 192.597656 206.546875 192.539062 206.804688 192.558594 207.082031 C 192.574219 207.359375 192.660156 207.609375 192.820312 207.835938 C 192.976562 208.0625 193.179688 208.234375 193.433594 208.347656 C 193.683594 208.460938 193.949219 208.5 194.222656 208.464844 L 196.449219 208.164062 C 196.695312 208.125 196.910156 208.195312 197.085938 208.375 C 197.273438 208.550781 197.347656 208.769531 197.316406 209.023438 C 196.457031 216.519531 194.519531 223.726562 191.503906 230.644531 C 191.425781 230.824219 191.382812 231.011719 191.382812 231.207031 C 191.378906 231.402344 191.410156 231.589844 191.484375 231.773438 C 191.554688 231.957031 191.660156 232.117188 191.796875 232.257812 C 191.933594 232.398438 192.089844 232.507812 192.269531 232.585938 C 193.839844 233.160156 194.320312 231.664062 194.777344 230.488281 C 195.042969 230.199219 195.339844 229.882812 195.660156 229.539062 C 206.601562 223.402344 240.898438 215.859375 241.246094 215.785156 C 241.433594 215.742188 241.609375 215.664062 241.769531 215.550781 C 241.925781 215.4375 242.058594 215.300781 242.160156 215.136719 C 242.265625 214.972656 242.335938 214.792969 242.367188 214.601562 C 242.402344 214.410156 242.398438 214.21875 242.355469 214.03125 C 242.316406 213.839844 242.238281 213.664062 242.128906 213.503906 C 242.015625 213.34375 241.878906 213.210938 241.71875 213.105469 C 241.554688 213 241.375 212.929688 241.183594 212.894531 C 240.992188 212.859375 240.804688 212.859375 240.613281 212.902344 C 239.417969 213.160156 215.796875 218.359375 201.425781 223.761719 C 202.957031 222.320312 204.613281 220.839844 206.324219 219.4375 C 206.507812 219.285156 206.671875 219.117188 206.820312 218.925781 C 206.964844 218.738281 207.089844 218.539062 207.191406 218.324219 C 207.296875 218.109375 207.375 217.882812 207.429688 217.652344 C 207.484375 217.421875 207.511719 217.1875 207.515625 216.949219 C 207.519531 216.710938 207.5 216.472656 207.453125 216.238281 C 207.40625 216.007812 207.335938 215.78125 207.238281 215.5625 C 207.144531 215.34375 207.027344 215.136719 206.886719 214.945312 C 206.746094 214.753906 206.585938 214.578125 206.410156 214.417969 C 207.835938 212.628906 210.902344 209.125 214.875 206.5625 C 215.089844 206.421875 215.28125 206.261719 215.457031 206.074219 C 215.632812 205.890625 215.789062 205.6875 215.917969 205.46875 C 216.046875 205.25 216.148438 205.015625 216.222656 204.773438 C 216.300781 204.527344 216.347656 204.28125 216.363281 204.023438 C 216.382812 203.769531 216.371094 203.515625 216.332031 203.265625 C 216.292969 203.011719 216.222656 202.769531 216.128906 202.53125 C 216.03125 202.296875 215.910156 202.074219 215.761719 201.863281 C 215.613281 201.65625 215.445312 201.46875 215.253906 201.296875 C 217.949219 198.535156 220.960938 196.179688 224.292969 194.230469 C 226.304688 193.171875 226.527344 190.117188 224.699219 188.769531 C 226.960938 185.769531 229.492188 183.015625 232.289062 180.507812 C 234.035156 179.050781 233.671875 176.234375 231.753906 175.097656 C 233.425781 172.851562 235.292969 170.78125 237.355469 168.890625 C 237.53125 168.730469 237.683594 168.554688 237.820312 168.359375 C 237.957031 168.167969 238.070312 167.960938 238.164062 167.746094 C 238.253906 167.527344 238.324219 167.304688 238.367188 167.074219 C 238.414062 166.839844 238.433594 166.605469 238.425781 166.371094 C 238.421875 166.136719 238.390625 165.902344 238.335938 165.671875 C 238.28125 165.445312 238.203125 165.222656 238.101562 165.011719 C 238 164.796875 237.875 164.597656 237.730469 164.410156 C 237.585938 164.226562 237.421875 164.058594 237.242188 163.90625 C 240.335938 159.691406 242.339844 155.011719 243.25 149.863281 C 243.378906 149.160156 243.316406 148.472656 243.0625 147.804688 C 242.8125 147.136719 242.402344 146.582031 241.839844 146.140625 C 241.28125 145.691406 240.644531 145.414062 239.933594 145.3125 C 239.222656 145.210938 238.535156 145.300781 237.871094 145.578125 C 234.414062 147.015625 229.699219 149.546875 225.984375 153.644531 C 225.792969 153.445312 225.582031 153.269531 225.355469 153.117188 C 225.125 152.964844 224.878906 152.839844 224.621094 152.746094 C 224.363281 152.648438 224.097656 152.582031 223.824219 152.546875 C 223.550781 152.511719 223.277344 152.511719 223.003906 152.539062 C 222.730469 152.566406 222.464844 152.625 222.203125 152.710938 C 221.941406 152.800781 221.695312 152.917969 221.460938 153.0625 C 221.226562 153.207031 221.011719 153.378906 220.820312 153.574219 C 220.625 153.765625 220.453125 153.980469 220.308594 154.214844 C 218.644531 156.917969 216.644531 160.664062 215.695312 164.332031 C 215.257812 164.140625 214.804688 164.035156 214.328125 164.019531 C 213.855469 164.007812 213.394531 164.085938 212.949219 164.253906 C 212.503906 164.421875 212.109375 164.667969 211.761719 164.992188 C 211.414062 165.316406 211.140625 165.691406 210.945312 166.125 C 209.574219 169.078125 208.582031 172.15625 207.957031 175.351562 C 207.554688 175.164062 207.132812 175.058594 206.6875 175.03125 C 206.246094 175 205.8125 175.050781 205.390625 175.183594 C 204.964844 175.3125 204.578125 175.515625 204.230469 175.789062 C 203.878906 176.0625 203.589844 176.386719 203.363281 176.769531 C 202.402344 178.457031 204.875 179.929688 205.902344 178.277344 C 205.953125 178.183594 206.027344 178.109375 206.121094 178.050781 C 206.214844 177.996094 206.316406 177.964844 206.425781 177.964844 C 206.535156 177.960938 206.636719 177.984375 206.734375 178.035156 C 206.832031 178.085938 206.910156 178.160156 206.96875 178.25 L 207.867188 179.578125 C 208.050781 179.84375 208.292969 180.027344 208.59375 180.132812 C 208.898438 180.238281 209.203125 180.246094 209.507812 180.15625 C 209.816406 180.0625 210.066406 179.890625 210.261719 179.636719 C 210.457031 179.382812 210.558594 179.097656 210.570312 178.777344 C 210.648438 174.570312 212.527344 169.804688 213.636719 167.335938 C 213.675781 167.246094 213.734375 167.167969 213.808594 167.105469 C 213.882812 167.042969 213.96875 167 214.066406 166.976562 C 214.160156 166.953125 214.257812 166.953125 214.355469 166.976562 C 214.449219 167 214.535156 167.042969 214.609375 167.105469 C 215.34375 167.648438 216.238281 168.734375 217.261719 168.253906 C 217.507812 168.152344 217.714844 167.992188 217.875 167.78125 C 218.039062 167.566406 218.136719 167.328125 218.167969 167.0625 C 218.652344 163.027344 221.292969 158.25 222.824219 155.757812 C 222.875 155.671875 222.945312 155.601562 223.035156 155.550781 C 223.121094 155.496094 223.214844 155.46875 223.316406 155.460938 C 223.417969 155.453125 223.515625 155.46875 223.609375 155.507812 C 223.703125 155.546875 223.78125 155.605469 223.847656 155.683594 L 224.859375 156.878906 C 225.003906 157.046875 225.175781 157.175781 225.378906 157.265625 C 225.582031 157.355469 225.792969 157.402344 226.015625 157.398438 C 226.234375 157.390625 226.445312 157.339844 226.644531 157.242188 C 226.84375 157.144531 227.011719 157.007812 227.148438 156.835938 C 230.605469 152.425781 235.503906 149.761719 239.007812 148.300781 C 239.359375 148.148438 239.6875 148.191406 239.988281 148.425781 C 240.289062 148.664062 240.40625 148.972656 240.339844 149.351562 C 239.894531 151.914062 239.128906 154.378906 238.042969 156.742188 C 236.957031 159.105469 235.585938 161.292969 233.933594 163.304688 C 233.777344 163.472656 233.667969 163.664062 233.605469 163.882812 C 233.539062 164.101562 233.523438 164.324219 233.5625 164.550781 C 233.601562 164.773438 233.683594 164.980469 233.816406 165.164062 C 233.949219 165.351562 234.113281 165.5 234.316406 165.609375 L 235.300781 166.140625 C 235.351562 166.164062 235.394531 166.199219 235.429688 166.246094 C 235.460938 166.292969 235.480469 166.34375 235.488281 166.402344 C 235.496094 166.457031 235.492188 166.511719 235.472656 166.566406 C 235.449219 166.617188 235.417969 166.664062 235.375 166.699219 C 232.78125 169.066406 230.484375 171.695312 228.492188 174.585938 C 228.390625 174.742188 228.320312 174.914062 228.28125 175.09375 C 228.242188 175.277344 228.238281 175.460938 228.269531 175.644531 C 228.300781 175.828125 228.363281 176 228.460938 176.160156 C 228.554688 176.320312 228.675781 176.457031 228.824219 176.570312 L 230.328125 177.726562 C 230.421875 177.792969 230.472656 177.878906 230.476562 177.992188 C 230.484375 178.105469 230.445312 178.199219 230.359375 178.273438 C 225.492188 182.472656 221.589844 187.988281 221.425781 188.21875 C 221.3125 188.375 221.238281 188.550781 221.191406 188.738281 C 221.148438 188.925781 221.144531 189.113281 221.175781 189.304688 C 221.207031 189.496094 221.269531 189.671875 221.371094 189.835938 C 221.472656 190 221.597656 190.140625 221.753906 190.257812 L 222.867188 191.078125 C 222.972656 191.152344 223.019531 191.253906 223.007812 191.382812 C 223.003906 191.507812 222.945312 191.597656 222.839844 191.65625 C 218.753906 194.035156 215.132812 196.976562 211.96875 200.484375 C 211.839844 200.636719 211.742188 200.808594 211.683594 201 C 211.621094 201.191406 211.601562 201.386719 211.621094 201.585938 C 211.636719 201.785156 211.695312 201.972656 211.789062 202.148438 C 211.886719 202.324219 212.011719 202.476562 212.167969 202.601562 L 213.308594 203.515625 C 213.351562 203.546875 213.386719 203.589844 213.410156 203.640625 C 213.4375 203.691406 213.445312 203.746094 213.445312 203.804688 C 213.441406 203.859375 213.425781 203.914062 213.394531 203.960938 C 213.363281 204.011719 213.324219 204.046875 213.277344 204.078125 C 207.230469 207.972656 203.269531 213.652344 203.105469 213.890625 C 202.992188 214.050781 202.917969 214.226562 202.875 214.417969 C 202.835938 214.609375 202.832031 214.800781 202.867188 214.992188 C 202.902344 215.1875 202.972656 215.363281 203.078125 215.527344 C 203.183594 215.691406 203.316406 215.832031 203.476562 215.941406 L 204.425781 216.601562 C 204.523438 216.671875 204.574219 216.761719 204.578125 216.878906 C 204.582031 216.992188 204.542969 217.082031 204.457031 217.152344 C 201.835938 219.296875 199.34375 221.613281 197.226562 223.703125 C 198.269531 220.347656 199.085938 216.933594 199.667969 213.464844 C 210.511719 190.652344 230.609375 160.808594 230.8125 160.507812 C 231.867188 158.886719 229.480469 157.257812 228.367188 158.855469 C 228.175781 159.132812 210.894531 184.792969 199.640625 206.851562 C 199.296875 206.335938 198.851562 205.933594 198.308594 205.640625 C 197.761719 205.347656 197.179688 205.199219 196.558594 205.199219 C 198.640625 200.734375 200.246094 196.101562 201.378906 191.308594 C 201.433594 191.054688 201.464844 190.796875 201.46875 190.539062 C 201.46875 190.28125 201.445312 190.023438 201.398438 189.769531 C 201.347656 189.515625 201.269531 189.269531 201.171875 189.03125 C 201.070312 188.792969 200.945312 188.566406 200.796875 188.355469 C 200.648438 188.140625 200.480469 187.945312 200.292969 187.769531 C 200.105469 187.589844 199.902344 187.433594 199.679688 187.296875 C 199.460938 187.164062 199.226562 187.050781 198.984375 186.964844 C 198.738281 186.875 198.488281 186.816406 198.234375 186.78125 C 199.796875 182.21875 200.734375 177.535156 201.042969 172.726562 C 201.070312 172.234375 201.003906 171.757812 200.84375 171.292969 C 200.679688 170.828125 200.4375 170.410156 200.113281 170.042969 C 199.785156 169.671875 199.402344 169.378906 198.960938 169.160156 C 198.523438 168.945312 198.054688 168.816406 197.566406 168.78125 C 199.113281 163.035156 199.792969 157.1875 199.609375 151.238281 C 199.597656 150.988281 199.5625 150.742188 199.503906 150.5 C 199.441406 150.253906 199.359375 150.019531 199.253906 149.792969 C 199.144531 149.566406 199.019531 149.351562 198.867188 149.152344 C 198.71875 148.953125 198.550781 148.765625 198.363281 148.601562 C 198.179688 148.433594 197.976562 148.285156 197.761719 148.15625 C 197.546875 148.03125 197.320312 147.925781 197.085938 147.84375 C 196.847656 147.761719 196.605469 147.703125 196.355469 147.667969 C 196.109375 147.636719 195.859375 147.628906 195.609375 147.644531 C 195.636719 144.445312 195.21875 141.308594 194.367188 138.230469 C 193.511719 135.148438 192.25 132.246094 190.582031 129.519531 C 190.417969 129.253906 190.222656 129.015625 190 128.800781 C 189.773438 128.585938 189.527344 128.402344 189.257812 128.253906 C 188.984375 128.101562 188.699219 127.988281 188.398438 127.910156 C 188.097656 127.832031 187.792969 127.792969 187.484375 127.792969 C 187.171875 127.792969 186.867188 127.832031 186.566406 127.910156 C 186.265625 127.988281 185.980469 128.101562 185.707031 128.253906 C 185.4375 128.402344 185.191406 128.585938 184.964844 128.800781 C 184.742188 129.015625 184.546875 129.253906 184.382812 129.519531 C 182.714844 132.246094 181.453125 135.148438 180.601562 138.230469 C 179.746094 141.308594 179.332031 144.449219 179.355469 147.644531 C 179.105469 147.628906 178.855469 147.636719 178.609375 147.671875 C 178.359375 147.703125 178.117188 147.761719 177.882812 147.84375 C 177.644531 147.925781 177.417969 148.03125 177.203125 148.160156 C 176.988281 148.285156 176.785156 148.433594 176.601562 148.601562 C 176.414062 148.769531 176.246094 148.953125 176.097656 149.152344 C 175.949219 149.355469 175.820312 149.570312 175.714844 149.796875 C 175.605469 150.023438 175.523438 150.257812 175.464844 150.5 C 175.402344 150.742188 175.367188 150.988281 175.359375 151.238281 C 175.171875 157.1875 175.851562 163.035156 177.402344 168.785156 C 176.910156 168.820312 176.445312 168.945312 176.003906 169.164062 C 175.5625 169.382812 175.179688 169.675781 174.851562 170.042969 C 174.527344 170.414062 174.285156 170.828125 174.121094 171.292969 C 173.960938 171.757812 173.894531 172.234375 173.921875 172.726562 C 174.230469 177.539062 175.167969 182.222656 176.734375 186.78125 C 176.476562 186.816406 176.226562 186.878906 175.984375 186.964844 C 175.738281 187.054688 175.507812 187.164062 175.285156 187.300781 C 175.066406 187.4375 174.863281 187.59375 174.671875 187.769531 C 174.484375 187.949219 174.316406 188.144531 174.167969 188.355469 C 174.023438 188.566406 173.898438 188.792969 173.796875 189.03125 C 173.695312 189.269531 173.621094 189.515625 173.570312 189.769531 C 173.519531 190.023438 173.496094 190.28125 173.5 190.539062 C 173.503906 190.796875 173.53125 191.054688 173.589844 191.308594 C 174.722656 196.101562 176.328125 200.734375 178.40625 205.199219 C 177.75 205.199219 177.136719 205.363281 176.570312 205.691406 C 176 206.015625 175.546875 206.460938 175.214844 207.027344 C 165.507812 186.949219 147.242188 161.957031 146.375 160.773438 C 145.203125 159.230469 142.867188 160.929688 143.992188 162.519531 C 144.226562 162.839844 167.695312 194.949219 175.632812 215.289062 C 176.191406 218.152344 176.902344 220.976562 177.769531 223.761719 C 175.269531 221.273438 172.839844 219.058594 170.507812 217.148438 C 170.421875 217.082031 170.382812 216.988281 170.386719 216.878906 C 170.390625 216.761719 170.441406 216.667969 170.539062 216.601562 L 171.488281 215.941406 C 171.648438 215.828125 171.78125 215.691406 171.886719 215.527344 C 171.992188 215.363281 172.0625 215.183594 172.097656 214.992188 C 172.132812 214.800781 172.128906 214.609375 172.089844 214.417969 C 172.046875 214.226562 171.972656 214.050781 171.859375 213.890625 C 171.695312 213.652344 167.730469 207.972656 161.6875 204.074219 C 161.585938 204.015625 161.53125 203.921875 161.523438 203.800781 C 161.515625 203.683594 161.5625 203.585938 161.65625 203.511719 C 162.199219 203.023438 163.339844 202.429688 163.347656 201.585938 C 163.382812 201.167969 163.269531 200.800781 162.996094 200.484375 C 159.832031 196.976562 156.210938 194.03125 152.125 191.65625 C 152.015625 191.597656 151.960938 191.503906 151.957031 191.382812 C 151.945312 191.253906 151.992188 191.152344 152.097656 191.078125 L 153.210938 190.253906 C 153.367188 190.140625 153.492188 190 153.59375 189.835938 C 153.695312 189.671875 153.757812 189.492188 153.789062 189.304688 C 153.820312 189.113281 153.8125 188.925781 153.769531 188.734375 C 153.726562 188.546875 153.652344 188.375 153.539062 188.21875 C 153.375 187.984375 149.472656 182.46875 144.605469 178.273438 C 144.523438 178.203125 144.484375 178.113281 144.492188 178.007812 C 144.492188 177.890625 144.542969 177.796875 144.632812 177.726562 L 146.140625 176.570312 C 146.285156 176.457031 146.410156 176.320312 146.503906 176.160156 C 146.601562 176 146.664062 175.828125 146.695312 175.644531 C 146.726562 175.460938 146.722656 175.277344 146.683594 175.09375 C 146.644531 174.910156 146.574219 174.742188 146.472656 174.585938 C 144.480469 171.695312 142.1875 169.066406 139.589844 166.699219 C 139.5 166.621094 139.464844 166.523438 139.480469 166.40625 C 139.496094 166.285156 139.554688 166.195312 139.664062 166.140625 L 140.648438 165.609375 C 140.847656 165.5 141.015625 165.351562 141.148438 165.164062 C 141.277344 164.980469 141.363281 164.773438 141.402344 164.550781 C 141.4375 164.324219 141.425781 164.101562 141.359375 163.882812 C 141.292969 163.664062 141.1875 163.472656 141.03125 163.304688 C 139.375 161.296875 138 159.113281 136.914062 156.746094 C 135.828125 154.382812 135.066406 151.917969 134.625 149.351562 C 134.554688 148.976562 134.671875 148.675781 134.972656 148.445312 Z M 134.972656 148.445312 " fill-opacity="1" fill-rule="nonzero"/></g><path fill="#ffffff" d="M 188.328125 222.246094 C 188.527344 222.246094 188.714844 222.207031 188.898438 222.128906 C 189.082031 222.054688 189.242188 221.945312 189.382812 221.804688 C 189.519531 221.664062 189.625 221.5 189.699219 221.316406 C 189.773438 221.132812 189.808594 220.941406 189.804688 220.742188 L 189.628906 210.988281 C 189.207031 188.09375 188.773438 164.421875 188.933594 153.871094 C 188.9375 153.675781 188.902344 153.488281 188.828125 153.304688 C 188.757812 153.125 188.652344 152.960938 188.515625 152.820312 C 188.378906 152.679688 188.222656 152.570312 188.042969 152.492188 C 187.863281 152.417969 187.675781 152.375 187.480469 152.375 C 187.28125 152.371094 187.09375 152.40625 186.910156 152.476562 C 186.730469 152.550781 186.570312 152.652344 186.429688 152.789062 C 186.289062 152.925781 186.179688 153.085938 186.101562 153.265625 C 186.023438 153.445312 185.984375 153.632812 185.980469 153.828125 C 185.820312 164.425781 186.253906 188.125 186.671875 211.042969 L 186.851562 220.796875 C 186.855469 220.988281 186.894531 221.175781 186.972656 221.351562 C 187.046875 221.53125 187.15625 221.6875 187.292969 221.824219 C 187.429688 221.957031 187.589844 222.0625 187.769531 222.136719 C 187.949219 222.210938 188.132812 222.246094 188.328125 222.246094 Z M 188.328125 222.246094 " fill-opacity="1" fill-rule="nonzero"/><path fill="#ffffff" d="M 189.332031 225.671875 C 187.84375 224.375 185.878906 226.554688 187.324219 227.902344 C 188.8125 229.199219 190.78125 227.015625 189.332031 225.671875 Z M 189.332031 225.671875 " fill-opacity="1" fill-rule="nonzero"/><g fill="#ffffff" fill-opacity="1"><g transform="translate(143.678705, 273.614308)"><g><path d="M 6.902344 3.339844 C 10.515625 4.765625 13.726562 3.777344 14.894531 0.824219 C 15.773438 -1.40625 14.808594 -3.382812 11.910156 -5.238281 L 9.800781 -6.609375 C 8.203125 -7.660156 7.710938 -8.589844 8.140625 -9.671875 C 8.667969 -11.011719 10.1875 -11.5625 11.972656 -10.859375 C 13.667969 -10.1875 14.507812 -8.582031 14.042969 -6.851562 L 16.703125 -6.4375 C 17.324219 -9.1875 15.753906 -11.796875 12.800781 -12.960938 C 9.53125 -14.253906 6.523438 -13.230469 5.410156 -10.40625 C 4.546875 -8.21875 5.402344 -6.410156 8.132812 -4.617188 L 10.210938 -3.234375 C 12.039062 -2.019531 12.621094 -1.003906 12.167969 0.140625 C 11.613281 1.542969 9.898438 2.09375 7.796875 1.261719 C 5.484375 0.347656 4.289062 -1.792969 4.941406 -3.9375 L 2.273438 -4.453125 C 1.363281 -1.15625 3.316406 1.921875 6.902344 3.339844 Z M 6.902344 3.339844 "/></g></g></g><g fill="#ffffff" fill-opacity="1"><g transform="translate(160.290161, 279.838366)"><g><path d="M 5.320312 1.097656 L 8.09375 1.667969 L 10.863281 -11.746094 L 15.894531 -10.707031 L 16.394531 -13.144531 L 3.539062 -15.796875 L 3.035156 -13.359375 L 8.089844 -12.316406 Z M 5.320312 1.097656 "/></g></g></g><g fill="#ffffff" fill-opacity="1"><g transform="translate(176.983749, 283.22153)"><g><path d="M 9.5625 0.636719 C 14.902344 0.671875 18.417969 -2.730469 18.453125 -7.957031 C 18.488281 -13.1875 15.019531 -16.65625 9.679688 -16.691406 C 4.335938 -16.726562 0.84375 -13.304688 0.808594 -8.078125 C 0.773438 -2.847656 4.21875 0.597656 9.5625 0.636719 Z M 9.578125 -1.832031 C 5.972656 -1.855469 3.613281 -4.335938 3.636719 -8.058594 C 3.664062 -11.777344 6.054688 -14.226562 9.660156 -14.203125 C 13.269531 -14.179688 15.625 -11.699219 15.601562 -7.976562 C 15.578125 -4.257812 13.183594 -1.804688 9.578125 -1.832031 Z M 9.578125 -1.832031 "/></g></g></g><g fill="#ffffff" fill-opacity="1"><g transform="translate(199.509684, 282.864557)"><g><path d="M 13.011719 -2.242188 C 14.195312 -2.484375 15.132812 -3.261719 15.671875 -4.257812 L 14.503906 -5.511719 C 14.277344 -4.925781 13.875 -4.496094 13.429688 -4.402344 C 12.9375 -4.300781 12.542969 -4.617188 12.304688 -5.101562 L 11.167969 -7.339844 C 10.710938 -8.199219 10.070312 -8.8125 9.140625 -9.019531 L 9.136719 -9.042969 C 11.570312 -10.011719 12.75 -11.976562 12.304688 -14.148438 C 11.722656 -16.964844 8.980469 -18.378906 5.492188 -17.660156 L -1.972656 -16.121094 L 1.296875 -0.265625 L 4.070312 -0.839844 L 2.757812 -7.191406 L 6.023438 -7.863281 C 7.03125 -8.070312 7.945312 -7.46875 8.476562 -6.480469 L 9.890625 -3.8125 C 10.53125 -2.617188 11.601562 -1.949219 13.011719 -2.242188 Z M 2.320312 -9.3125 L 1.253906 -14.480469 L 5.703125 -15.398438 C 7.671875 -15.800781 9.214844 -15 9.527344 -13.480469 C 9.84375 -11.9375 8.738281 -10.636719 6.769531 -10.230469 Z M 2.320312 -9.3125 "/></g></g></g><g fill="#ffffff" fill-opacity="1"><g transform="translate(218.477501, 278.521729)"><g><path d="M 1.226562 -0.496094 L 11.839844 -4.765625 L 10.953125 -6.96875 L 2.882812 -3.71875 L 1.066406 -8.230469 L 8.078125 -11.054688 L 7.265625 -13.066406 L 0.257812 -10.242188 L -1.390625 -14.332031 L 6.46875 -17.492188 L 5.582031 -19.695312 L -4.816406 -15.507812 Z M 1.226562 -0.496094 "/></g></g></g><g fill="#ffffff" fill-opacity="1"><g transform="translate(117.509514, 141.934884)"><g><path d="M 0.832031 -1.027344 L 2.597656 -3.210938 L -2.015625 -6.945312 L 0.671875 -10.265625 C 2.941406 -13.070312 2.875 -16.292969 0.515625 -18.203125 C -1.84375 -20.113281 -5.011719 -19.535156 -7.28125 -16.730469 L -11.75 -11.210938 Z M -3.769531 -8.367188 L -8.226562 -11.972656 L -5.710938 -15.078125 C -4.390625 -16.710938 -2.578125 -17.066406 -1.265625 -16.003906 C 0.046875 -14.9375 0.0507812 -13.089844 -1.257812 -11.472656 Z M -3.769531 -8.367188 "/></g></g></g><g fill="#ffffff" fill-opacity="1"><g transform="translate(128.228832, 129.39355)"><g><path d="M 0.96875 -0.902344 L 3.039062 -2.832031 L -8 -14.671875 L -10.070312 -12.742188 Z M 0.96875 -0.902344 "/></g></g></g><g fill="#ffffff" fill-opacity="1"><g transform="translate(133.114594, 124.334352)"><g><path d="M 8.117188 -4.785156 C 11.789062 -7.261719 12.933594 -11.199219 11.097656 -14.945312 L 8.59375 -13.835938 C 9.855469 -11.191406 9.140625 -8.453125 6.757812 -6.84375 C 3.804688 -4.851562 0.578125 -5.59375 -1.546875 -8.703125 C -3.667969 -11.847656 -3.285156 -14.996094 -0.558594 -16.832031 C 1.429688 -18.175781 3.722656 -17.875 5.460938 -16.074219 L 7.285156 -18.105469 C 4.757812 -20.667969 1.136719 -20.976562 -1.949219 -18.898438 C -6.132812 -16.074219 -6.855469 -11.511719 -3.894531 -7.121094 C -0.945312 -2.75 3.726562 -1.824219 8.117188 -4.785156 Z M 8.117188 -4.785156 "/></g></g></g><g fill="#ffffff" fill-opacity="1"><g transform="translate(149.244527, 113.84737)"><g><path d="M 1.226562 -0.5 L 3.847656 -1.570312 L 1.679688 -6.875 L 2.6875 -9.480469 L 9.828125 -4.011719 L 12.957031 -5.289062 L 3.65625 -12.121094 L 6.566406 -20.164062 L 3.351562 -18.851562 L 0.378906 -10.191406 L 0.335938 -10.171875 L -2.269531 -16.554688 L -4.890625 -15.488281 Z M 1.226562 -0.5 "/></g></g></g><g fill="#ffffff" fill-opacity="1"><g transform="translate(163.63084, 108.019441)"><g><path d="M 7.972656 -0.972656 C 12.074219 -1.773438 14.234375 -4.894531 13.457031 -8.882812 L 11.535156 -18.742188 L 8.734375 -18.195312 L 10.648438 -8.378906 C 11.136719 -5.871094 9.921875 -3.867188 7.503906 -3.394531 C 5.058594 -2.917969 3.171875 -4.480469 2.714844 -6.832031 L 0.800781 -16.648438 L -2 -16.101562 L -0.078125 -6.242188 C 0.699219 -2.253906 3.851562 -0.167969 7.972656 -0.972656 Z M 7.972656 -0.972656 "/></g></g></g><g fill="#ffffff" fill-opacity="1"><g transform="translate(180.6843, 104.882172)"><g><path d="M 1.324219 0.0078125 L 4.132812 0.0273438 L 4.171875 -5.910156 L 8.441406 -5.878906 C 12.046875 -5.855469 14.527344 -7.917969 14.546875 -10.953125 C 14.566406 -13.992188 12.136719 -16.109375 8.53125 -16.132812 L 1.429688 -16.175781 Z M 4.1875 -8.167969 L 4.222656 -13.898438 L 8.21875 -13.871094 C 10.320312 -13.859375 11.726562 -12.664062 11.714844 -10.972656 C 11.703125 -9.285156 10.257812 -8.128906 8.179688 -8.144531 Z M 4.1875 -8.167969 "/></g></g></g><g fill="#ffffff" fill-opacity="1"><g transform="translate(197.169587, 105.426496)"><g/></g></g><g fill="#ffffff" fill-opacity="1"><g transform="translate(204.388241, 106.283996)"><g><path d="M 1.269531 0.375 L 3.960938 1.175781 L 5.652344 -4.515625 L 9.742188 -3.300781 C 13.203125 -2.273438 16.15625 -3.5625 17.019531 -6.472656 C 17.886719 -9.382812 16.140625 -12.09375 12.683594 -13.121094 L 5.875 -15.140625 Z M 6.292969 -6.679688 L 7.925781 -12.175781 L 11.753906 -11.035156 C 13.769531 -10.4375 14.789062 -8.898438 14.308594 -7.277344 C 13.824219 -5.660156 12.117188 -4.953125 10.125 -5.542969 Z M 6.292969 -6.679688 "/></g></g></g><g fill="#ffffff" fill-opacity="1"><g transform="translate(219.976729, 111.177178)"><g><path d="M 1.183594 0.59375 L 10.449219 5.242188 L 11.554688 3.039062 L 4.820312 -0.339844 L 10.972656 -12.601562 L 8.445312 -13.875 Z M 1.183594 0.59375 "/></g></g></g><g fill="#ffffff" fill-opacity="1"><g transform="translate(231.972116, 117.132843)"><g><path d="M 6.046875 5.289062 C 9.378906 7.8125 13.140625 7.339844 15.59375 4.097656 L 21.65625 -3.914062 L 19.378906 -5.632812 L 13.347656 2.339844 C 11.804688 4.378906 9.5 4.8125 7.535156 3.324219 C 5.550781 1.824219 5.453125 -0.625 6.902344 -2.535156 L 12.933594 -10.511719 L 10.660156 -12.234375 L 4.597656 -4.222656 C 2.144531 -0.980469 2.695312 2.753906 6.046875 5.289062 Z M 6.046875 5.289062 "/></g></g></g><g fill="#ffffff" fill-opacity="1"><g transform="translate(245.754568, 127.537811)"><g><path d="M 5.363281 7.1875 C 7.21875 9.382812 9.785156 10.292969 12.304688 9.773438 L 12.320312 9.792969 L 10.144531 11.992188 L 11.558594 13.664062 L 18.460938 7.824219 L 11.457031 -0.453125 L 9.90625 0.859375 L 15.097656 6.996094 C 12.800781 8.875 9.566406 8.445312 7.558594 6.074219 C 5.320312 3.425781 5.714844 -0.140625 8.484375 -2.484375 C 11.257812 -4.828125 14.699219 -4.71875 16.792969 -2.242188 C 18.132812 -0.65625 18.285156 1.605469 17.234375 3.332031 L 19.449219 4.925781 C 21.144531 2.300781 20.886719 -1.253906 18.707031 -3.832031 C 15.519531 -7.597656 10.527344 -7.917969 6.65625 -4.644531 C 2.804688 -1.386719 2.265625 3.527344 5.363281 7.1875 Z M 5.363281 7.1875 "/></g></g></g></svg>